#!OML:ASF X:\für Bonn\!DataBase\2005_08_11_Bastian_Final\c3d\Bastian.ASF
:FULLY-SPECIFIED
:DEGREES
46
root -1.47596 13.6984 1.74558 166.131 -2.48112 -174.836
lowerback 26.8743 -0.0557985 1.01634
upperback 6.29072 -1.17051 1.11761
thorax -7.85867 -1.19564 1.1212
lowerneck -9.93362 -7.91562 -4.88061
upperneck -7.1887 -9.03446 11.4988
head 0.256937 -3.97401 4.29774
rclavicle -2.55438e-014 8.34896e-015
rhumerus 77.866 14.4683 20.8142
rradius 39.7461
rwrist -69.6141
rhand -48.7181 -9.19516
rfingers 7.12502
rthumb -21.3583 -38.0381
lclavicle -2.55438e-014 8.34896e-015
lhumerus 76.5002 -20.0149 -35.9849
lradius 31.4894
lwrist 27.5711
lhand -43.7033 22.969
lfingers 7.12502
lthumb -16.5356 52.2844
rfemur -25.7085 -7.30923 25.9846
rtibia 90.5236
rfoot -40.0372 -8.74867
rtoes -7.36546
lfemur -25.6422 3.3684 -12.8225
ltibia 91.9992
lfoot -39.7242 -13.8064
ltoes -1.7155
47
root -1.46775 13.4623 1.74885 165.928 -2.35154 -174.753
lowerback 27.2466 -0.0192476 1.07726
upperback 6.31572 -1.12884 1.12483
thorax -8.01645 -1.18829 1.09171
lowerneck -9.95875 -7.92196 -4.8603
upperneck -7.29094 -9.01931 11.5825
head 0.230372 -3.96077 4.32574
rclavicle 1.65985e-014 -1.19271e-015
rhumerus 77.7 14.0462 21.0042
rradius 39.8315
rwrist -69.7747
rhand -48.7427 -9.44443
rfingers 7.12502
rthumb -21.3819 -38.2847
lclavicle 1.65985e-014 -1.19271e-015
lhumerus 76.365 -19.4994 -36.708
lradius 31.6443
lwrist 28.2912
lhand -43.8682 23.2005
lfingers 7.12502
lthumb -16.6943 52.5026
rfemur -26.864 -7.47477 26.1237
rtibia 93.1624
rfoot -40.6439 -8.78288
rtoes -7.45326
lfemur -26.8529 3.70691 -12.5357
ltibia 94.886
lfoot -40.2981 -14.1846
ltoes -1.80125
48
root -1.46045 13.2212 1.75232 165.711 -2.23096 -174.666
lowerback 27.6235 -0.00718956 1.18043
upperback 6.34209 -1.11044 1.09189
thorax -8.17525 -1.19297 1.00078
lowerneck -9.96565 -7.90853 -4.72817
upperneck -7.4002 -8.98748 11.6112
head 0.187415 -3.94284 4.31477
rclavicle 6.55989e-015 -1.03368e-014
rhumerus 77.5404 13.6776 21.1446
rradius 39.8788
rwrist -69.8822
rhand -48.7852 -9.6765
rfingers 7.12502
rthumb -21.4227 -38.5121
lclavicle 6.55989e-015 -1.03368e-014
lhumerus 76.1636 -18.9815 -37.287
lradius 31.7719
lwrist 28.8567
lhand -43.9525 23.3477
lfingers 7.12502
lthumb -16.7754 52.643
rfemur -28.0024 -7.62448 26.2755
rtibia 95.8075
rfoot -41.2259 -8.81921
rtoes -7.3833
lfemur -28.0336 4.0407 -12.2263
ltibia 97.7487
lfoot -40.8585 -14.6468
ltoes -1.82766
49
root -1.45237 12.9793 1.75607 165.519 -2.10395 -174.537
lowerback 27.9408 -0.00548354 1.34205
upperback 6.38393 -1.09179 1.04186
thorax -8.28715 -1.19915 0.854665
lowerneck -10.0013 -7.89067 -4.57486
upperneck -7.50178 -8.94559 11.6969
head 0.153421 -3.91691 4.31953
rclavicle -8.44835e-015 2.78299e-015
rhumerus 77.3498 13.3501 21.1529
rradius 39.91
rwrist -69.9055
rhand -48.8136 -9.95095
rfingers 7.12502
rthumb -21.45 -38.7834
lclavicle -8.44835e-015 2.78299e-015
lhumerus 75.9394 -18.4358 -37.7085
lradius 31.8619
lwrist 29.3547
lhand -43.9942 23.3545
lfingers 7.12502
lthumb -16.8157 52.6463
rfemur -29.1495 -7.76054 26.4969
rtibia 98.4213
rfoot -41.7788 -8.91203
rtoes -7.41522
lfemur -29.2262 4.44254 -11.8402
ltibia 100.578
lfoot -41.4639 -15.0629
ltoes -2.11544
50
root -1.44457 12.7391 1.7596 165.37 -1.98419 -174.399
lowerback 28.2095 -0.0131706 1.473
upperback 6.42518 -1.0895 1.02155
thorax -8.37425 -1.21186 0.763272
lowerneck -10.008 -7.86678 -4.4716
upperneck -7.65034 -8.88587 11.7906
head 0.10066 -3.88229 4.33974
rclavicle 1.98785e-015 4.77083e-015
rhumerus 77.2174 13.0156 21.1607
rradius 39.9503
rwrist -70.0082
rhand -48.8884 -10.1007
rfingers 7.12502
rthumb -21.5218 -38.925
lclavicle 1.98785e-015 4.77083e-015
lhumerus 75.6897 -17.9378 -38.1457
lradius 31.9566
lwrist 29.9484
lhand -44.0491 23.3328
lfingers 7.12502
lthumb -16.8685 52.6202
rfemur -30.316 -7.87757 26.7326
rtibia 100.989
rfoot -42.3255 -8.88483
rtoes -7.10634
lfemur -30.4479 4.86712 -11.427
ltibia 103.348
lfoot -42.0656 -15.4367
ltoes -2.61308
51
root -1.43635 12.5006 1.76288 165.203 -1.86571 -174.277
lowerback 28.5135 -0.0169431 1.61536
upperback 6.45615 -1.07914 0.968268
thorax -8.4906 -1.22062 0.626693
lowerneck -10.0207 -7.84474 -4.31934
upperneck -7.75102 -8.83807 11.8948
head 0.0636548 -3.85436 4.35248
rclavicle 6.65929e-015 -1.23246e-014
rhumerus 77.0482 12.7706 21.0596
rradius 39.9642
rwrist -70.084
rhand -48.9597 -10.1818
rfingers 7.12502
rthumb -21.5903 -38.9983
lclavicle 6.65929e-015 -1.23246e-014
lhumerus 75.4768 -17.4516 -38.4717
lradius 32.0124
lwrist 30.463
lhand -44.0662 23.2047
lfingers 7.12502
lthumb -16.885 52.4906
rfemur -31.4273 -7.98559 26.9497
rtibia 103.503
rfoot -42.8549 -8.78088
rtoes -6.59574
lfemur -31.6136 5.34042 -11.0109
ltibia 106.062
lfoot -42.6724 -15.7158
ltoes -3.59034
52
root -1.4291 12.2655 1.76621 165.051 -1.76405 -174.142
lowerback 28.8103 -0.0295486 1.77364
upperback 6.4856 -1.0735 0.924667
thorax -8.6044 -1.23184 0.49293
lowerneck -9.98954 -7.82376 -4.15775
upperneck -7.90842 -8.78729 11.965
head -0.0023114 -3.82762 4.35425
rclavicle -6.95746e-016 5.96354e-015
rhumerus 76.8732 12.5602 20.9826
rradius 40.0149
rwrist -70.2627
rhand -49.0788 -10.1925
rfingers 7.12502
rthumb -21.7047 -38.9958
lclavicle -6.95746e-016 5.96354e-015
lhumerus 75.2814 -17.0077 -38.8061
lradius 32.0831
lwrist 31.0535
lhand -44.1275 23.0848
lfingers 7.12502
lthumb -16.9439 52.3657
rfemur -32.5366 -8.13425 27.1749
rtibia 105.946
rfoot -43.3599 -8.70083
rtoes -6.13559
lfemur -32.7644 5.84195 -10.5585
ltibia 108.702
lfoot -43.1833 -16.0384
ltoes -4.53765
53
root -1.42214 12.0347 1.76841 164.87 -1.67801 -174.029
lowerback 29.139 -0.0320369 1.88194
upperback 6.51844 -1.06911 0.902598
thorax -8.72869 -1.24414 0.413251
lowerneck -9.94594 -7.80653 -4.08274
upperneck -8.05814 -8.73553 12.0751
head -0.0610184 -3.79927 4.38709
rclavicle -2.09718e-014 3.97569e-015
rhumerus 76.7196 12.345 20.9584
rradius 40.0882
rwrist -70.5716
rhand -49.1744 -10.0664
rfingers 7.12502
rthumb -21.7965 -38.859
lclavicle -2.09718e-014 3.97569e-015
lhumerus 75.1071 -16.6115 -39.1275
lradius 32.1708
lwrist 31.7248
lhand -44.2085 22.9372
lfingers 7.12502
lthumb -17.0219 52.2114
rfemur -33.5829 -8.32814 27.3653
rtibia 108.325
rfoot -43.861 -8.62741
rtoes -5.85928
lfemur -33.8239 6.37301 -10.1228
ltibia 111.251
lfoot -43.6674 -16.3347
ltoes -5.45811
54
root -1.41521 11.8072 1.77104 164.696 -1.58531 -173.897
lowerback 29.4661 -0.0184013 1.98505
upperback 6.54832 -1.0411 0.92022
thorax -8.85384 -1.24538 0.372603
lowerneck -9.8825 -7.79591 -4.05395
upperneck -8.2166 -8.69147 12.1608
head -0.124394 -3.77598 4.42051
rclavicle -6.36111e-015 5.96354e-015
rhumerus 76.569 12.0962 21.2142
rradius 40.2626
rwrist -71.162
rhand -49.3471 -9.90393
rfingers 7.12502
rthumb -21.9624 -38.6772
lclavicle -6.36111e-015 5.96354e-015
lhumerus 74.9511 -16.232 -39.5426
lradius 32.3173
lwrist 32.5797
lhand -44.3391 22.8046
lfingers 7.12502
lthumb -17.1476 52.0679
rfemur -34.6256 -8.53585 27.5853
rtibia 110.641
rfoot -44.2757 -8.62066
rtoes -5.61789
lfemur -34.8464 6.96315 -9.62066
ltibia 113.74
lfoot -44.1151 -16.699
ltoes -6.2127
55
root -1.40907 11.5792 1.77277 164.487 -1.49661 -173.764
lowerback 29.8118 -0.00611736 2.09319
upperback 6.60026 -1.01964 0.942338
thorax -8.96217 -1.25296 0.336605
lowerneck -9.84021 -7.78575 -4.01726
upperneck -8.36696 -8.64934 12.2295
head -0.182762 -3.75322 4.44542
rclavicle -5.06901e-015 -2.38542e-015
rhumerus 76.4265 11.9239 21.0908
rradius 40.2923
rwrist -71.4723
rhand -49.4312 -9.58774
rfingers 7.12502
rthumb -22.0431 -38.3515
lclavicle -5.06901e-015 -2.38542e-015
lhumerus 74.7956 -15.9027 -39.8504
lradius 32.4301
lwrist 33.302
lhand -44.4401 22.7005
lfingers 7.12502
lthumb -17.2448 51.9553
rfemur -35.6034 -8.76126 27.7989
rtibia 112.916
rfoot -44.6715 -8.58536
rtoes -5.44655
lfemur -35.7995 7.60109 -9.08628
ltibia 116.183
lfoot -44.5205 -17.1514
ltoes -6.59281
56
root -1.40318 11.3498 1.77402 164.28 -1.42599 -173.686
lowerback 30.1366 0.014201 2.14959
upperback 6.6499 -1.00224 0.955922
thorax -9.06229 -1.26061 0.321719
lowerneck -9.74916 -7.77723 -4.02341
upperneck -8.55016 -8.60235 12.3239
head -0.25714 -3.7291 4.49055
rclavicle -1.58034e-014 0
rhumerus 76.285 11.8292 20.7872
rradius 40.2728
rwrist -71.6039
rhand -49.4251 -9.29511
rfingers 7.12502
rthumb -22.0372 -38.0595
lclavicle -1.58034e-014 0
lhumerus 74.6771 -15.6351 -40.018
lradius 32.4979
lwrist 33.9352
lhand -44.5607 22.5951
lfingers 7.12502
lthumb -17.3608 51.8398
rfemur -36.5779 -9.01974 27.93
rtibia 115.181
rfoot -45.0277 -8.52769
rtoes -5.24275
lfemur -36.728 8.28425 -8.59909
ltibia 118.586
lfoot -44.9467 -17.5426
ltoes -7.19861
57
root -1.39843 11.1163 1.77569 164.058 -1.36482 -173.571
lowerback 30.4533 0.0180325 2.27818
upperback 6.70801 -0.986873 0.958985
thorax -9.1484 -1.2716 0.253527
lowerneck -9.69892 -7.77936 -4.0184
upperneck -8.67949 -8.57686 12.4185
head -0.30557 -3.7143 4.52982
rclavicle 1.35174e-014 -3.18055e-015
rhumerus 76.1302 11.7297 20.5998
rradius 40.2662
rwrist -71.8704
rhand -49.4471 -8.91682
rfingers 7.12502
rthumb -22.0584 -37.6788
lclavicle 1.35174e-014 -3.18055e-015
lhumerus 74.5446 -15.3455 -40.0794
lradius 32.5573
lwrist 34.3789
lhand -44.6255 22.4941
lfingers 7.12502
lthumb -17.4232 51.7333
rfemur -37.5619 -9.33759 28.1007
rtibia 117.461
rfoot -45.374 -8.48318
rtoes -5.07401
lfemur -37.6716 9.03382 -8.03599
ltibia 120.986
lfoot -45.3541 -17.9597
ltoes -7.63499
